<svg className="tvlist-2" xmlns="http://www.w3.org/2000/svg" width="22" height="13" style="enable-background:new 0 0 22 13" xml:space="preserve"><path style="fill:#222" d="M2 1v1H1V1h1m1-1H0v3h3V0zM9 1v1H5V1h4m1-1H4v3h6V0zM2 6v1H1V6h1m1-1H0v3h3V5zM9 6v1H5V6h4m1-1H4v3h6V5zM2 11v1H1v-1h1m1-1H0v3h3v-3zM9 11v1H5v-1h4m1-1H4v3h6v-3z"/><g><path style="fill:#222" d="M14 11v1h-1v-1h1m1-1h-3v3h3v-3zM21 11v1h-4v-1h4m1-1h-6v3h6v-3z"/></g><g><path style="fill:#222" d="M14 6v1h-1V6h1m1-1h-3v3h3V5zM21 6v1h-4V6h4m1-1h-6v3h6V5z"/></g><g><path style="fill:#222" d="M14 1v1h-1V1h1m1-1h-3v3h3V0zM21 1v1h-4V1h4m1-1h-6v3h6V0z"/></g></svg>